<?xml version="1.0" encoding="UTF-8"?>
<svg version="1.1" xmlns="http://www.w3.org/2000/svg" width="1024" height="1024">
<path d="M0 0 C337.92 0 675.84 0 1024 0 C1024 337.92 1024 675.84 1024 1024 C686.08 1024 348.16 1024 0 1024 C0 686.08 0 348.16 0 0 Z " fill="#FCFBFB" transform="translate(0,0)"/>
<path d="M0 0 C2.56582793 2.56582793 2.76818511 4.47340822 3.5625 8 C3.81128906 9.0725 4.06007813 10.145 4.31640625 11.25 C7.78544996 30.28018265 6.87299633 50.12836432 3 69 C2.7834375 70.13050781 2.566875 71.26101563 2.34375 72.42578125 C-3.19769331 98.91256087 -15.11305786 122.64886266 -34 142 C-34.58136719 142.64324219 -35.16273438 143.28648437 -35.76171875 143.94921875 C-54.59375893 164.29920675 -89.688308 180.17304305 -117.32421875 181.28125 C-121 181 -121 181 -122.70874023 179.74243164 C-125.10234022 176.51249723 -124.39522093 172.84294235 -124 169 C-123.43623628 166.0952174 -122.59548492 163.35560294 -121.625 160.5625 C-121.36243408 159.79534668 -121.09986816 159.02819336 -120.8293457 158.23779297 C-114.53759568 140.7857826 -103.88554099 125.99751334 -91.328125 112.515625 C-89.35963602 110.38859999 -87.48484054 108.22097462 -85.625 106 C-76.10165308 95.13192122 -64.52468623 86.59435724 -53 78 C-51.49448421 76.8715038 -49.98926562 75.742611 -48.484375 74.61328125 C-47.32291667 73.7421875 -46.16145833 72.87109375 -45 72 C-50.18738239 72.59493118 -54.39639499 75.02639378 -58.9375 77.4375 C-59.77925781 77.88343506 -60.62101562 78.32937012 -61.48828125 78.78881836 C-91.59025034 95.07784931 -121.89629638 122.33998903 -132.25390625 155.9140625 C-135.85443064 168.5166546 -136.79018701 179.92218724 -131 192 C-128.51707588 196.32509363 -125.65209459 199.61513184 -122 203 C-121.278125 203.680625 -120.55625 204.36125 -119.8125 205.0625 C-108.79892177 212.64963167 -96.45145492 213.14159281 -83.6875 210.8125 C-66.13526905 207.01362036 -50.67617007 198.02732494 -35.0625 189.5 C-3.86109607 172.51443329 29.08403894 159.18468618 65 169 C84.18918312 175.14413332 98.18720487 186.76000502 112 201 C111.67 201.66 111.34 202.32 111 203 C110.07960938 202.34773437 109.15921875 201.69546875 108.2109375 201.0234375 C95.5344257 192.20139604 83.40416552 186.60297374 68 184 C66.0509375 183.6596875 66.0509375 183.6596875 64.0625 183.3125 C33.94392011 180.22341488 7.85336624 192.55151988 -18.1328125 206.24609375 C-19.18284454 206.79913177 -19.18284454 206.79913177 -20.25408936 207.36334229 C-20.95914612 207.73473328 -21.66420288 208.10612427 -22.390625 208.48876953 C-35.95428925 215.63019755 -49.10962318 222.02638948 -64 226 C-65.84851563 226.56267578 -65.84851563 226.56267578 -67.734375 227.13671875 C-84.62638005 231.25280199 -103.30337189 228.8782012 -118.375 220.6875 C-133.74831578 211.13220648 -141.08992023 195.11099077 -145.75 178.125 C-152.52404439 148.30317145 -149.5044636 116.63666847 -134 90 C-131.18716661 85.83561014 -128.17768731 81.89139249 -125 78 C-124.08541016 76.87271484 -124.08541016 76.87271484 -123.15234375 75.72265625 C-107.16678773 56.75118771 -84.56117191 45.9848198 -62.34310913 36.15576172 C-28.84898525 21.82608913 -28.84898525 21.82608913 0 0 Z " fill="#45964C" transform="translate(567,235)"/>
<path d="M0 0 C3.34549904 2.75250068 6.22178469 5.68012007 9 9 C9.50144531 9.59039063 10.00289062 10.18078125 10.51953125 10.7890625 C17.83905 20.82852326 19.2787413 36.07799776 18 48 C15.22648984 61.33361302 8.98373951 73.30079442 -2.3125 81.25 C-16.19017037 89.93534472 -32.61167184 92.35458505 -48.6171875 89.3125 C-62.2753722 85.05540347 -72.73197656 76.89068382 -79.75390625 64.4453125 C-81.49084097 61.0367823 -82.87002153 57.65185094 -84 54 C-84.391875 52.80375 -84.78375 51.6075 -85.1875 50.375 C-88.26795941 37.06115001 -85.61215782 23.26468603 -78.7890625 11.6015625 C-71.48517352 0.98062351 -61.14820886 -5.82287347 -48.82421875 -9.30859375 C-31.447661 -12.45021859 -14.8039261 -9.79978207 0 0 Z " fill="#206143" transform="translate(748,506)"/>
<path d="M0 0 C24 0 24 0 29.28125 4.22265625 C30.984375 7.0078125 30.984375 7.0078125 32.5 10.0625 C33.75810198 12.19017247 35.01858723 14.3164372 36.28125 16.44140625 C36.89097656 17.53469238 37.50070313 18.62797852 38.12890625 19.75439453 C41.0951831 24.89970827 44.55067462 29.67136205 48 34.5 C49.33077923 36.40700469 50.65889881 38.31586809 51.984375 40.2265625 C52.64373047 41.1743457 53.30308594 42.12212891 53.98242188 43.09863281 C56.03617806 46.05202566 58.088551 49.00637564 60.140625 51.9609375 C66.34123904 60.88627474 72.54808784 69.80677453 78.8125 78.6875 C79.54098145 79.72076416 79.54098145 79.72076416 80.28417969 80.77490234 C80.7330957 81.40992676 81.18201172 82.04495117 81.64453125 82.69921875 C82.25868896 83.56812744 82.25868896 83.56812744 82.88525391 84.45458984 C83.83402746 85.76990666 84.82497958 87.05463129 85.82421875 88.33203125 C87 90 87 90 87 92 C87.66 92 88.32 92 89 92 C88.67 91.34 88.34 90.68 88 90 C87.90668986 87.16219263 87.87424639 84.34910226 87.88647461 81.51123047 C87.88632858 80.63311707 87.88618256 79.75500366 87.8860321 78.85028076 C87.88673042 75.9392248 87.89451905 73.02823232 87.90234375 70.1171875 C87.90420822 68.10222407 87.90563198 66.08726019 87.90663147 64.07229614 C87.91045438 58.7622147 87.92028276 53.4521605 87.93133545 48.14208984 C87.94155441 42.72624073 87.94613013 37.31038722 87.95117188 31.89453125 C87.96190521 21.26300692 87.9795002 10.63150999 88 0 C94.6 0 101.2 0 108 0 C108 42.9 108 85.8 108 130 C89 130 89 130 84.50390625 126.22265625 C82.96264648 123.75341797 82.96264648 123.75341797 81.5625 121.0625 C80.44135274 119.21148276 79.3189358 117.36123401 78.1953125 115.51171875 C77.66196289 114.58020996 77.12861328 113.64870117 76.57910156 112.68896484 C74.26327352 108.74546917 71.61950229 105.07457128 68.9375 101.375 C67.95065304 99.97999352 66.96497688 98.58415807 65.98046875 97.1875 C62.93417914 92.89440829 59.84255503 88.63481519 56.75 84.375 C51.09029429 76.57403897 45.56683731 68.68274289 40.08300781 60.75732422 C34.11103001 52.1302669 28.05207048 43.57376652 22 35 C21.67 66.35 21.34 97.7 21 130 C14.07 130 7.14 130 0 130 C0 87.1 0 44.2 0 0 Z " fill="#236346" transform="translate(95,464)"/>
<path d="M0 0 C7.59 0 15.18 0 23 0 C24.98558105 4.63302246 26.61850616 8.7195001 27.99291992 13.48608398 C28.35306686 14.72684189 28.71321381 15.96759979 29.08427429 17.24595642 C29.4664361 18.57930774 29.84849865 19.9126875 30.23046875 21.24609375 C30.62935382 22.62625766 31.02863694 24.0063066 31.42829895 25.38624573 C32.47286888 28.99686095 33.51206618 32.60900053 34.55010986 36.22149658 C35.61281572 39.91618791 36.68065398 43.60939497 37.74804688 47.30273438 C39.83702549 54.53372236 41.92032415 61.7663303 44 69 C46.76554109 61.88592961 49.09240302 54.65217045 51.4140625 47.3828125 C51.83314707 46.07617353 52.25245222 44.7696053 52.67196655 43.46310425 C53.99182445 39.3511 55.30852822 35.23808933 56.625 31.125 C58.15844813 26.33511114 59.6931927 21.54564281 61.23048019 16.75698471 C61.84394954 14.84405139 62.45538913 12.93046752 63.06680298 11.01687622 C63.43743866 9.86162445 63.80807434 8.70637268 64.18994141 7.51611328 C64.51620514 6.49655548 64.84246887 5.47699768 65.17861938 4.42654419 C66 2 66 2 67 0 C74.26 0 81.52 0 89 0 C89.58265625 1.80855469 90.1653125 3.61710937 90.765625 5.48046875 C93.2469363 13.17965838 95.73147715 20.87780296 98.21722412 28.57556152 C99.02348964 31.07275286 99.82938093 33.57006478 100.63525391 36.06738281 C102.00786017 40.32023722 103.38231268 44.57249146 104.75793457 48.82437134 C105.29438445 50.48334931 105.83027303 52.14250889 106.36560059 53.80184937 C107.11853691 56.13531449 107.87347644 58.46812237 108.62890625 60.80078125 C108.85451736 61.50147736 109.08012848 62.20217346 109.31257629 62.92410278 C110.47832753 66.53264215 110.47832753 66.53264215 112 70 C112.26086899 69.13778336 112.52173798 68.27556671 112.79051208 67.38722229 C115.24462908 59.2779734 117.70177644 51.16965045 120.16236782 43.06236362 C121.42739669 38.89389118 122.6912338 34.72506503 123.95239258 30.55541992 C125.16859031 26.53458075 126.38785922 22.51468496 127.60930061 18.49543571 C128.07570914 16.95871394 128.54099334 15.42165049 129.00515556 13.88424873 C129.65341367 11.73776467 130.30559051 9.59250955 130.95874023 7.44750977 C131.32958237 6.22395279 131.7004245 5.00039581 132.08250427 3.73976135 C133 1 133 1 134 0 C135.63472882 -0.08700342 137.27314055 -0.10701063 138.91015625 -0.09765625 C139.89951172 -0.09443359 140.88886719 -0.09121094 141.90820312 -0.08789062 C142.94912109 -0.07951172 143.99003906 -0.07113281 145.0625 -0.0625 C146.62967773 -0.05573242 146.62967773 -0.05573242 148.22851562 -0.04882812 C150.8190666 -0.03699913 153.40950559 -0.02051689 156 0 C145.64561037 32.10637642 135.18309925 64.17117905 124 96 C116.41 96 108.82 96 101 96 C93.11725596 73.73557249 85.37034902 51.43974187 78 29 C72.5464275 42.99989816 67.84353833 57.23904274 63.125 71.5 C62.33361541 73.88420823 61.5419508 76.26832354 60.75 78.65234375 C58.82958846 84.43366634 56.91492345 90.21684588 55 96 C47.41 96 39.82 96 32 96 C28.42501233 85.54517272 24.85323505 75.08925996 21.28616333 64.63172913 C19.38226437 59.05023609 17.47718652 53.46914928 15.5703125 47.88867188 C13.49340771 41.80999352 11.41975891 35.73021221 9.3480835 29.64974976 C8.53165378 27.25519752 7.71414599 24.86101259 6.89556885 22.4671936 C5.74264493 19.09497446 4.59353273 15.72147936 3.4453125 12.34765625 C3.09597656 11.32867249 2.74664063 10.30968872 2.38671875 9.25982666 C2.07105957 8.32982849 1.75540039 7.39983032 1.43017578 6.44165039 C1.15263458 5.62821671 0.87509338 4.81478302 0.58914185 3.97669983 C0 2 0 2 0 0 Z " fill="#206143" transform="translate(773,498)"/>
<path d="M0 0 C6.93 0 13.86 0 21 0 C21.01401855 2.89072266 21.01401855 2.89072266 21.02832031 5.83984375 C21.0639412 12.23021068 21.11779825 18.62022389 21.18390274 25.01034546 C21.22329528 28.88207616 21.25552363 32.75358224 21.27099609 36.62548828 C21.28621752 40.36700741 21.32075837 44.10790865 21.36830902 47.84915161 C21.38306672 49.27152108 21.39103778 50.69397879 21.39188385 52.11642456 C21.40142261 60.11705349 21.52775288 66.220494 26 73 C31.7326803 78.44604628 36.21725034 79.41163669 43.96484375 79.2421875 C51.076646 78.67470778 55.68362412 76.19083067 60.52734375 70.9609375 C65.22483663 64.70592046 66.08230981 56.89679198 66.20532227 49.27001953 C66.22526749 48.16933136 66.24521271 47.06864319 66.26576233 45.93460083 C66.28247482 44.76251068 66.29918732 43.59042053 66.31640625 42.3828125 C66.3475779 40.56437332 66.3475779 40.56437332 66.37937927 38.709198 C66.44460982 34.8478547 66.50363651 30.98644509 66.5625 27.125 C66.60571041 24.50259739 66.6493255 21.88020141 66.69335938 19.2578125 C66.80026407 12.83860913 66.90160599 6.41933924 67 0 C73.6 0 80.2 0 87 0 C87 31.68 87 63.36 87 96 C80.4 96 73.8 96 67 96 C66.67 92.7 66.34 89.4 66 86 C64.906875 87.0725 63.81375 88.145 62.6875 89.25 C54.73139529 96.24344435 44.38960203 98.34026772 34.03515625 98.21484375 C24.79620113 97.56086366 14.86208619 94.96871089 8.21875 88.1796875 C2.02142482 80.43303102 -0.13145149 71.90396665 -0.11352539 62.09838867 C-0.11367142 61.42466217 -0.11381744 60.75093567 -0.1139679 60.05679321 C-0.11327472 57.84381826 -0.10551036 55.63092889 -0.09765625 53.41796875 C-0.09578995 51.87811835 -0.09436705 50.33826735 -0.09336853 48.79841614 C-0.08956002 44.75589341 -0.07974402 40.71340691 -0.06866455 36.67089844 C-0.05841455 32.54167165 -0.05386323 28.41243898 -0.04882812 24.28320312 C-0.0381202 16.18878365 -0.02053695 8.09440051 0 0 Z " fill="#216043" transform="translate(227,498)"/>
<path d="M0 0 C5.12968589 4.54472171 9.90215463 9.44995 14.671875 14.3671875 C14.341875 15.0271875 14.011875 15.6871875 13.671875 16.3671875 C12.75148438 15.71492188 11.83109375 15.06265625 10.8828125 14.390625 C-1.7936993 5.56858354 -13.92395948 -0.02983876 -29.328125 -2.6328125 C-31.2771875 -2.973125 -31.2771875 -2.973125 -33.265625 -3.3203125 C-63.38420489 -6.40939762 -89.47475876 5.91870738 -115.4609375 19.61328125 C-116.16095886 19.98197327 -116.86098022 20.35066528 -117.58221436 20.73052979 C-118.28727112 21.10192078 -118.99232788 21.47331177 -119.71875 21.85595703 C-133.28241425 28.99738505 -146.43774818 35.39357698 -161.328125 39.3671875 C-162.56046875 39.74230469 -163.7928125 40.11742187 -165.0625 40.50390625 C-170.79065612 41.89968889 -176.65255098 41.75027004 -182.515625 41.7421875 C-183.71928711 41.74057617 -184.92294922 41.73896484 -186.16308594 41.73730469 C-194.5517666 41.62120626 -201.65901562 41.00189569 -209.328125 37.3671875 C-210.05773437 37.04363281 -210.78734375 36.72007812 -211.5390625 36.38671875 C-215.53925345 34.38662327 -217.18085523 32.17371118 -219.328125 28.3671875 C-220.99136901 27.36150508 -222.65748753 26.36053951 -224.328125 25.3671875 C-224.328125 24.3771875 -224.328125 23.3871875 -224.328125 22.3671875 C-225.318125 22.3671875 -226.308125 22.3671875 -227.328125 22.3671875 C-227.658125 20.7171875 -227.988125 19.0671875 -228.328125 17.3671875 C-228.988125 17.3671875 -229.648125 17.3671875 -230.328125 17.3671875 C-231.94761511 14.79505616 -232.37221251 13.69049591 -231.953125 10.6171875 C-231.746875 9.8746875 -231.540625 9.1321875 -231.328125 8.3671875 C-228.99479167 10.70052083 -226.66145833 13.03385417 -224.328125 15.3671875 C-223.379375 15.9859375 -222.430625 16.6046875 -221.453125 17.2421875 C-218.0802429 19.53574733 -215.17388344 21.67567062 -213.328125 25.3671875 C-212.338125 25.3671875 -211.348125 25.3671875 -210.328125 25.3671875 C-208.843125 25.8621875 -208.843125 25.8621875 -207.328125 26.3671875 C-205.37172225 26.26955006 -205.37172225 26.26955006 -203.265625 25.9296875 C-200.0178903 25.50742986 -196.97343208 25.36661644 -193.703125 25.4921875 C-171.40012286 25.66507899 -151.33175763 13.21178886 -132.390625 2.8671875 C-89.80848953 -20.31387526 -41.45507726 -33.92979253 0 0 Z " fill="#55BEAC" transform="translate(664.328125,421.6328125)"/>
<path d="M0 0 C-0.66 5.28 -1.32 10.56 -2 16 C-4.04380859 16.03867187 -4.04380859 16.03867187 -6.12890625 16.078125 C-7.94013503 16.13443263 -9.75133171 16.19177936 -11.5625 16.25 C-12.45775391 16.26417969 -13.35300781 16.27835937 -14.27539062 16.29296875 C-20.33030111 16.51476034 -24.02254282 17.50002022 -29 21 C-33.19072108 25.76875158 -32.77316456 30.25240508 -34 37 C-24.76 37 -15.52 37 -6 37 C-6 42.61 -6 48.22 -6 54 C-15.24 54 -24.48 54 -34 54 C-34 80.07 -34 106.14 -34 133 C-40.6 133 -47.2 133 -54 133 C-54 106.93 -54 80.86 -54 54 C-59.61 54 -65.22 54 -71 54 C-71 48.39 -71 42.78 -71 37 C-65.39 37 -59.78 37 -54 37 C-54.0825 35.040625 -54.165 33.08125 -54.25 31.0625 C-54.21922779 21.60517558 -51.25568779 15.62855299 -44.84765625 8.78515625 C-32.76926663 -2.88466205 -15.71828976 -4.26258705 0 0 Z " fill="#205F42" transform="translate(605,461)"/>
<path d="M0 0 C0.83265381 0.00523682 1.66530762 0.01047363 2.52319336 0.01586914 C3.33280518 0.0183667 4.14241699 0.02086426 4.9765625 0.0234375 C6.01159912 0.0325415 7.04663574 0.04164551 8.11303711 0.05102539 C11.39241211 0.07165039 14.67178711 0.09227539 18.05053711 0.11352539 C18.05053711 8.03352539 18.05053711 15.95352539 18.05053711 24.11352539 C26.96053711 24.11352539 35.87053711 24.11352539 45.05053711 24.11352539 C45.05053711 29.72352539 45.05053711 35.33352539 45.05053711 41.11352539 C36.14053711 41.11352539 27.23053711 41.11352539 18.05053711 41.11352539 C18.12467556 48.23081618 18.20763705 55.34688275 18.31298828 62.46362305 C18.34615687 64.88250295 18.37421369 67.30145874 18.39697266 69.72045898 C18.43066646 73.20597549 18.48299151 76.69080154 18.53881836 80.17602539 C18.54520828 81.25029785 18.55159821 82.32457031 18.55818176 83.43139648 C18.67904901 89.66250151 19.33110005 94.46994931 22.05053711 100.11352539 C26.89958266 103.89814631 32.17681019 103.54615117 38.05053711 103.11352539 C40.69053711 102.78352539 43.33053711 102.45352539 46.05053711 102.11352539 C46.05053711 107.72352539 46.05053711 113.33352539 46.05053711 119.11352539 C39.32547059 120.79479202 34.3450571 121.47881808 27.61303711 121.48852539 C26.72293945 121.51301758 25.8328418 121.53750977 24.91577148 121.56274414 C16.96407642 121.59759452 11.31512167 119.26938312 4.73803711 114.92602539 C-1.53468549 108.36154825 -3.08342787 100.25432827 -3.06298828 91.38354492 C-3.06291275 90.28285675 -3.06283722 89.18216858 -3.0627594 88.04812622 C-3.05759811 86.87603607 -3.05243683 85.70394592 -3.04711914 84.49633789 C-3.04570419 83.2840451 -3.04428925 82.07175232 -3.04283142 80.82272339 C-3.03724634 76.96129867 -3.0246965 73.09993251 -3.01196289 69.23852539 C-3.00694597 66.6161304 -3.00238339 63.99373449 -2.99829102 61.37133789 C-2.98728178 54.95204459 -2.97002733 48.53279491 -2.94946289 42.11352539 C-8.22946289 42.11352539 -13.50946289 42.11352539 -18.94946289 42.11352539 C-18.94946289 36.17352539 -18.94946289 30.23352539 -18.94946289 24.11352539 C-13.66946289 24.11352539 -8.38946289 24.11352539 -2.94946289 24.11352539 C-2.96106445 22.46481445 -2.97266602 20.81610352 -2.98461914 19.11743164 C-2.99399527 16.97029735 -3.00309566 14.82316184 -3.01196289 12.67602539 C-3.0203418 11.58741211 -3.0287207 10.49879883 -3.03735352 9.37719727 C-3.04057617 8.34272461 -3.04379883 7.30825195 -3.04711914 6.24243164 C-3.05235596 5.28409424 -3.05759277 4.32575684 -3.06298828 3.33837891 C-2.91893176 0.51518082 -2.8222242 0.16434994 0 0 Z " fill="#236144" transform="translate(346.949462890625,473.886474609375)"/>
<path d="M0 0 C9.54247572 5.22650865 14.58887165 12.20411495 18 22.4375 C18.91165564 33.67691164 18.33796881 43.51748926 11.16796875 52.8125 C5.55134487 58.83901556 -1.16832549 62.95994555 -9.48046875 63.640625 C-20.44151876 63.83042673 -26.77862108 61.49198881 -34.765625 53.83984375 C-42.24162223 45.80183973 -44.51285563 37.6381318 -44.3125 26.71875 C-43.54589059 18.66935122 -39.75541272 11.11990537 -34 5.4375 C-24.24796175 -1.54562879 -11.58333533 -4.75526398 0 0 Z " fill="#FAF9F9" transform="translate(727,515.5625)"/>
<path d="M0 0 C6.93 0 13.86 0 21 0 C21 44.55 21 89.1 21 135 C14.07 135 7.14 135 0 135 C0 90.45 0 45.9 0 0 Z " fill="#246548" transform="translate(620,459)"/>
<path d="M0 0 C6.93 0 13.86 0 21 0 C21.33 3.96 21.66 7.92 22 12 C22.680625 11.278125 23.36125 10.55625 24.0625 9.8125 C30.19530599 3.73152054 36.26003934 -0.0298712 45.18359375 -0.1953125 C46.60171192 -0.18410779 48.01973227 -0.15845677 49.4375 -0.125 C51.933125 -0.08375 54.42875 -0.0425 57 0 C57 6.6 57 13.2 57 20 C54.36 19.9175 51.72 19.835 49 19.75 C41.12914976 19.68167407 36.0581022 20.33861655 30.08203125 25.73046875 C22.17702279 33.896261 21.54886579 42.94406841 21.48828125 53.91015625 C21.47033005 55.11820419 21.45237885 56.32625214 21.43388367 57.57090759 C21.38002122 61.40140368 21.34596135 65.23177685 21.3125 69.0625 C21.27930579 71.67124097 21.2448142 74.27996577 21.20898438 76.88867188 C21.12430817 83.25902558 21.05738187 89.62934434 21 96 C14.07 96 7.14 96 0 96 C0 64.32 0 32.64 0 0 Z " fill="#236346" transform="translate(413,498)"/>
<path d="M0 0 C6.93 0 13.86 0 21 0 C21 31.68 21 63.36 21 96 C14.07 96 7.14 96 0 96 C0 64.32 0 32.64 0 0 Z " fill="#246648" transform="translate(491,498)"/>
<path d="M0 0 C0.89098389 0.00563965 1.78196777 0.0112793 2.69995117 0.01708984 C32.27534549 0.55064612 53.70987722 14.65257961 73.75 35.3125 C73.255 36.3025 73.255 36.3025 72.75 37.3125 C71.82960938 36.66023438 70.90921875 36.00796875 69.9609375 35.3359375 C57.2844257 26.51389604 45.15416552 20.91547374 29.75 18.3125 C27.8009375 17.9721875 27.8009375 17.9721875 25.8125 17.625 C10.99016046 16.10476005 -2.96540659 17.86548034 -16.95874023 22.72338867 C-21.94384403 24.41455199 -21.94384403 24.41455199 -25.25 23.3125 C-19.31 21.3325 -13.37 19.3525 -7.25 17.3125 C-7.58 16.3225 -7.91 15.3325 -8.25 14.3125 C-7.59 14.3125 -6.93 14.3125 -6.25 14.3125 C-6.889375 13.219375 -7.52875 12.12625 -8.1875 11 C-9.51601325 8.7286709 -10.40813297 6.83810108 -11.25 4.3125 C-9 3.625 -9 3.625 -6.25 3.3125 C-3.9375 4.75 -3.9375 4.75 -2.25 6.3125 C-2.25 5.3225 -2.25 4.3325 -2.25 3.3125 C-7.695 2.8175 -7.695 2.8175 -13.25 2.3125 C-8.47281103 -0.07609448 -5.22869023 -0.03436375 0 0 Z " fill="#4DB2B4" transform="translate(605.25,400.6875)"/>
<path d="M0 0 C6.93 0 13.86 0 21 0 C21 44.55 21 89.1 21 135 C14.07 135 7.14 135 0 135 C0 90.45 0 45.9 0 0 Z M2 1 C2 44.56 2 88.12 2 133 C7.61 133 13.22 133 19 133 C19 89.44 19 45.88 19 1 C13.39 1 7.78 1 2 1 Z " fill="#195538" transform="translate(620,459)"/>
<path d="M0 0 C7.59 0 15.18 0 23 0 C23 0.33 23 0.66 23 1 C16.07 1 9.14 1 2 1 C2 42.91 2 84.82 2 128 C7.94 128 13.88 128 20 128 C20 96.98 20 65.96 20 34 C20.33 34 20.66 34 21 34 C21 65.68 21 97.36 21 130 C14.07 130 7.14 130 0 130 C0 87.1 0 44.2 0 0 Z " fill="#12492E" transform="translate(95,464)"/>
<path d="M0 0 C5.55322511 0.51724736 9.74619424 1.9552124 14.6875 4.5 C15.38593018 4.85747314 16.08436035 5.21494629 16.80395508 5.58325195 C29.06294666 12.04029947 38.50519875 21.09171547 48 31 C47.67 31.66 47.34 32.32 47 33 C46.07960938 32.34773438 45.15921875 31.69546875 44.2109375 31.0234375 C25.40256997 17.93401663 6.38514621 12.75956525 -16.5 12.9375 C-18.16289063 12.94426758 -18.16289063 12.94426758 -19.859375 12.95117188 C-22.57297399 12.96286842 -25.28645761 12.97925914 -28 13 C-28 12.67 -28 12.34 -28 12 C-22.0827441 10.78174143 -16.14248484 10.66352622 -10.125 10.4375 C-8.52011719 10.37272461 -8.52011719 10.37272461 -6.8828125 10.30664062 C-4.25532246 10.20107183 -1.62774578 10.09896209 1 10 C2.32 7.36 3.64 4.72 5 2 C2.525 1.505 2.525 1.505 0 1 C0 0.67 0 0.34 0 0 Z " fill="#3B9DB1" transform="translate(631,405)"/>
<path d="M0 0 C6.93 0 13.86 0 21 0 C21 31.68 21 63.36 21 96 C14.07 96 7.14 96 0 96 C0 64.32 0 32.64 0 0 Z M2 1 C2 31.69 2 62.38 2 94 C7.94 94 13.88 94 20 94 C20 63.31 20 32.62 20 1 C14.06 1 8.12 1 2 1 Z " fill="#18492F" transform="translate(491,498)"/>
<path d="M0 0 C6.93 0 13.86 0 21 0 C21 3.96 21 7.92 21 12 C20.67 12 20.34 12 20 12 C20 8.37 20 4.74 20 1 C14.06 1 8.12 1 2 1 C2 31.69 2 62.38 2 94 C7.94 94 13.88 94 20 94 C19.98428955 92.41131104 19.9685791 90.82262207 19.95239258 89.18579102 C19.89789818 83.2649446 19.86357878 77.34412016 19.83520508 71.4230957 C19.8201629 68.86544053 19.79972411 66.30781096 19.77368164 63.75024414 C19.73709796 60.06390037 19.72022732 56.37789909 19.70703125 52.69140625 C19.69154739 51.55667374 19.67606354 50.42194122 19.66011047 49.25282288 C19.658695 42.50356668 20.49044117 37.27823887 23 31 C24 34 24 34 23.08837891 36.89282227 C21.38369858 42.37481143 21.64228273 48.0227227 21.5859375 53.71484375 C21.56657135 54.92572159 21.5472052 56.13659943 21.5272522 57.38417053 C21.46767962 61.23520967 21.42115984 65.08627905 21.375 68.9375 C21.33679973 71.55535127 21.29774682 74.17319024 21.2578125 76.79101562 C21.1619962 83.19391006 21.0778824 89.59686332 21 96 C14.07 96 7.14 96 0 96 C0 64.32 0 32.64 0 0 Z " fill="#144D30" transform="translate(413,498)"/>
<path d="M0 0 C6.74586274 -0.22696361 13.58481758 -0.41688268 20 2 C20.33 2.66 20.66 3.32 21 4 C21.99 4.33 22.98 4.66 24 5 C22.375 11.75 22.375 11.75 19 14 C16.51953125 13.9765625 16.51953125 13.9765625 13.8125 13.625 C12.91144531 13.51414062 12.01039063 13.40328125 11.08203125 13.2890625 C10.39496094 13.19367188 9.70789063 13.09828125 9 13 C9 12.34 9 11.68 9 11 C9.639375 10.87625 10.27875 10.7525 10.9375 10.625 C11.618125 10.41875 12.29875 10.2125 13 10 C13.33 9.34 13.66 8.68 14 8 C13.01 8.33 12.02 8.66 11 9 C11.33 7.68 11.66 6.36 12 5 C8.04476345 2.24331998 4.77576339 1.4682121 0 1 C0 0.67 0 0.34 0 0 Z " fill="#4AA8B6" transform="translate(612,402)"/>
<path d="M0 0 C8.33484239 3.80863659 14.68743963 11.55592795 21 18 C20.67 18.66 20.34 19.32 20 20 C19.07960938 19.34773438 18.15921875 18.69546875 17.2109375 18.0234375 C6.9828153 10.91153674 -3.09420243 5.86714628 -15 2 C-11.72814447 0.92689142 -9.57052408 1.10736898 -6.25 1.9375 C-5.45078125 2.13214844 -4.6515625 2.32679688 -3.828125 2.52734375 C-2.92320312 2.76130859 -2.92320312 2.76130859 -2 3 C-1.34 2.01 -0.68 1.02 0 0 Z " fill="#2D91AE" transform="translate(658,418)"/>
<path d="M0 0 C0.33 0 0.66 0 1 0 C1.08766265 5.52274721 0.89040819 10.7793195 0.12109375 16.25 C0.08113281 16.8275 0.04117187 17.405 0 18 C1.56586008 19.56586008 3.4251488 19.61094693 5.5625 20.0625 C6.38878906 20.23910156 7.21507812 20.41570312 8.06640625 20.59765625 C8.70449219 20.73042969 9.34257812 20.86320312 10 21 C10 20.34 10 19.68 10 19 C13 18 13 18 16 18 C16.99 17.67 17.98 17.34 19 17 C21.1875 17.9375 21.1875 17.9375 23 19 C20.50276548 19.67885987 18.00303859 20.34317427 15.5 21 C14.80390625 21.19078125 14.1078125 21.3815625 13.390625 21.578125 C8.45801543 22.8569497 4.09935587 23.43584238 -1 23 C-2.9765625 21.75390625 -2.9765625 21.75390625 -4 20 C-5.33771222 13.58685026 -3.28486678 6.96669874 -1 1 C-0.67 0.67 -0.34 0.34 0 0 Z " fill="#307954" transform="translate(447,393)"/>
<path d="M0 0 C0.33 0 0.66 0 1 0 C1.02703381 1.93742341 1.04641125 3.87495479 1.0625 5.8125 C1.07410156 6.89144531 1.08570313 7.97039062 1.09765625 9.08203125 C1 12 1 12 0 15 C0.31085728 17.00361645 0.64749729 19.00328947 1 21 C1.08900644 23.22777871 1.13017898 25.45794997 1.125 27.6875 C1.12757813 28.80511719 1.13015625 29.92273438 1.1328125 31.07421875 C1 34 1 34 0 37 C0.33 37.66 0.66 38.32 1 39 C0.71758117 41.3400417 0.38749213 43.67504723 0 46 C-7.23393274 35.1491009 -3.00267726 15.35227946 -1 3 C-0.67 2.01 -0.34 1.02 0 0 Z " fill="#286F43" transform="translate(421,357)"/>
<path d="M0 0 C0 4.2253908 -2.15831608 7.1049656 -4.1875 10.6875 C-8.68487029 18.84854289 -11.59577023 27.02340344 -14 36 C-16 33 -16 33 -16 31 C-15.34 31 -14.68 31 -14 31 C-13.505 26.545 -13.505 26.545 -13 22 C-12.34 22 -11.68 22 -11 22 C-10.34 18.37 -9.68 14.74 -9 11 C-8.01 11 -7.02 11 -6 11 C-5.938125 9.9275 -5.87625 8.855 -5.8125 7.75 C-5 4 -5 4 -2.4375 1.5625 C-1.633125 1.046875 -0.82875 0.53125 0 0 Z " fill="#1E7039" transform="translate(446,364)"/>
<path d="M0 0 C1.75 0.1875 1.75 0.1875 4 1 C4.8353125 2.0828125 4.8353125 2.0828125 5.6875 3.1875 C11.1969543 9.88818766 18.98726965 13.15623349 27 16 C27 16.33 27 16.66 27 17 C24.1875 17.625 24.1875 17.625 21 18 C20.01 17.34 19.02 16.68 18 16 C17.01 16 16.02 16 15 16 C14.9175 15.38125 14.835 14.7625 14.75 14.125 C14.20721211 11.88670521 14.20721211 11.88670521 12.3125 10.9375 C11.549375 10.628125 10.78625 10.31875 10 10 C4.58959782 7.511215 2.56179222 5.30656959 0 0 Z " fill="#2C8A6A" transform="translate(435,431)"/>
<path d="M0 0 C-1.55933321 1.27471705 -3.12261706 2.54460214 -4.6875 3.8125 C-5.55761719 4.52019531 -6.42773438 5.22789062 -7.32421875 5.95703125 C-9.79999632 7.84729646 -12.29796238 9.45667401 -15 11 C-16 10 -16 10 -16.0625 7.4375 C-16.041875 6.633125 -16.02125 5.82875 -16 5 C-14.09118566 3.96455826 -12.17260796 2.94709915 -10.25 1.9375 C-8.64898438 1.08478516 -8.64898438 1.08478516 -7.015625 0.21484375 C-3.97406463 -1.01044806 -2.95106435 -1.25348607 0 0 Z " fill="#F3F8F3" transform="translate(523,307)"/>
<path d="M0 0 C0.99 0.66 1.98 1.32 3 2 C2.67 2.99 2.34 3.98 2 5 C3.32 5.66 4.64 6.32 6 7 C4.23050388 7.50471197 2.45934777 8.00360685 0.6875 8.5 C-0.29863281 8.7784375 -1.28476562 9.056875 -2.30078125 9.34375 C-5 10 -5 10 -8 10 C-7.00305041 6.64662411 -6.41434947 5.27286429 -3.4375 3.3125 C-2.2309375 2.6628125 -2.2309375 2.6628125 -1 2 C-0.67 1.34 -0.34 0.68 0 0 Z " fill="#57BAB5" transform="translate(596,411)"/>
<path d="M0 0 C7.59 0 15.18 0 23 0 C23 0.66 23 1.32 23 2 C16.4 2 9.8 2 3 2 C3.33 4.31 3.66 6.62 4 9 C3.34 8.67 2.68 8.34 2 8 C1.34 5.36 0.68 2.72 0 0 Z " fill="#0D4426" transform="translate(773,498)"/>
<path d="M0 0 C0 5.50254747 -5.3635316 9.17719083 -9 13 C-9.72703125 13.77988281 -10.4540625 14.55976563 -11.203125 15.36328125 C-14.66831056 18.98056465 -17.1897913 21.34130735 -22 23 C-20.52861945 19.12090583 -18.54638875 17.98943759 -15 16 C-12.85305579 14.09160515 -11.62522635 12.43783953 -10 10 C-8.66666667 8.66666667 -7.33333333 7.33333333 -6 6 C-5.29875 5.113125 -4.5975 4.22625 -3.875 3.3125 C-2 1 -2 1 0 0 Z " fill="#16742D" transform="translate(543,363)"/>
<path d="M0 0 C0.33 0.99 0.66 1.98 1 3 C1.66 3.33 2.32 3.66 3 4 C3 4.99 3 5.98 3 7 C3.66 7 4.32 7 5 7 C5.33 8.65 5.66 10.3 6 12 C6.99 12 7.98 12 9 12 C9.2475 12.61875 9.495 13.2375 9.75 13.875 C10.82143729 16.13746494 10.82143729 16.13746494 13 17 C15.49016793 18.24508396 15.98686718 19.46716796 17 22 C9.11547826 19.84967589 4.4070052 12.48761205 -0.03125 6.11328125 C-1 4 -1 4 -0.65625 1.73046875 C-0.4396875 1.15941406 -0.223125 0.58835937 0 0 Z " fill="#298A6B" transform="translate(431,432)"/>
<path d="M0 0 C2.00720923 0.28674418 4.0085944 0.61866701 6 1 C1.38493724 5.61506276 -8.37172568 6.15951556 -14.75 6.3125 C-18 6 -18 6 -20 4 C-19.67 3.01 -19.34 2.02 -19 1 C-18.67 1.66 -18.34 2.32 -18 3 C-15.41394668 3.4683265 -15.41394668 3.4683265 -12.4375 3.625 C-10.91962891 3.73714844 -10.91962891 3.73714844 -9.37109375 3.8515625 C-8.19740234 3.92503906 -8.19740234 3.92503906 -7 4 C-7 3.34 -7 2.68 -7 2 C-4 1 -4 1 -1 1 C-0.67 0.67 -0.34 0.34 0 0 Z " fill="#226A40" transform="translate(464,410)"/>
<path d="M0 0 C0.66 0 1.32 0 2 0 C0.93122579 5.11647229 -0.24581905 10.06636607 -2 15 C-2.37125 16.11375 -2.7425 17.2275 -3.125 18.375 C-3.41375 19.24125 -3.7025 20.1075 -4 21 C-4.66 21 -5.32 21 -6 21 C-6.33 21.99 -6.66 22.98 -7 24 C-6.69156849 15.20970201 -3.43222587 7.96654261 0 0 Z " fill="#25793D" transform="translate(429,332)"/>
<path d="M0 0 C-1.65 0.33 -3.3 0.66 -5 1 C-5 1.66 -5 2.32 -5 3 C-13.15002924 4.06162705 -20.83382806 3.84388104 -29 3 C-29 2.67 -29 2.34 -29 2 C-28.42032471 1.94465088 -27.84064941 1.88930176 -27.2434082 1.83227539 C-24.59951088 1.57832383 -21.95601028 1.32044806 -19.3125 1.0625 C-18.40048828 0.97548828 -17.48847656 0.88847656 -16.54882812 0.79882812 C-15.21948242 0.66831055 -15.21948242 0.66831055 -13.86328125 0.53515625 C-13.05157471 0.456604 -12.23986816 0.37805176 -11.40356445 0.29711914 C-8.94539487 0.02771129 -8.94539487 0.02771129 -6.34057617 -0.56079102 C-3.84914979 -1.02830703 -2.37994318 -0.79331439 0 0 Z " fill="#3AAF97" transform="translate(492,446)"/>
<path d="M0 0 C0.33 0.66 0.66 1.32 1 2 C0.26392017 4.19380655 -0.56300451 6.35760454 -1.4375 8.5 C-3.30125645 12.62748591 -3.30125645 12.62748591 -4 17 C-4.639375 17.12375 -5.27875 17.2475 -5.9375 17.375 C-6.618125 17.58125 -7.29875 17.7875 -8 18 C-8.33 18.66 -8.66 19.32 -9 20 C-8.484897 14.68544522 -6.63835295 11.09376879 -3.9375 6.625 C-3.37192383 5.66400391 -3.37192383 5.66400391 -2.79492188 4.68359375 C-1.87160383 3.11745934 -0.93694607 1.55801966 0 0 Z " fill="#1D6C37" transform="translate(457,372)"/>
<path d="M0 0 C2 2 2 2 2.265625 5.1875 C2.26046875 6.445625 2.2553125 7.70375 2.25 9 C2.25515625 10.258125 2.2603125 11.51625 2.265625 12.8125 C2 16 2 16 0 18 C-1.48619895 15.02760209 -1.13177009 12.30380422 -1.125 9 C-1.12757813 7.741875 -1.13015625 6.48375 -1.1328125 5.1875 C-1 2 -1 2 0 0 Z " fill="#2E6247" transform="translate(663,536)"/>
<path d="M0 0 C0.33 0 0.66 0 1 0 C1.33 2.64 1.66 5.28 2 8 C-4.27 8 -10.54 8 -17 8 C-17 7.34 -17 6.68 -17 6 C-11.39 6 -5.78 6 0 6 C0 4.02 0 2.04 0 0 Z " fill="#0E5638" transform="translate(639,586)"/>
<path d="M0 0 C6.40629424 -0.20852314 11.92972642 -0.1583195 18 2 C17.34 2.61875 16.68 3.2375 16 3.875 C13.7715451 5.75637427 13.7715451 5.75637427 14 8 C13.01 8.33 12.02 8.66 11 9 C11.33 7.68 11.66 6.36 12 5 C8.04476345 2.24331998 4.77576339 1.4682121 0 1 C0 0.67 0 0.34 0 0 Z " fill="#3BA5B0" transform="translate(612,402)"/>
<path d="M0 0 C4.07376031 1.61010527 6.76507069 4.53822271 9.75 7.625 C10.25660156 8.140625 10.76320313 8.65625 11.28515625 9.1875 C12.52803902 10.45383339 13.76465276 11.7263144 15 13 C14.67 13.66 14.34 14.32 14 15 C12.3251177 13.90833564 10.66026877 12.80126363 9 11.6875 C8.071875 11.07261719 7.14375 10.45773437 6.1875 9.82421875 C5.1046875 8.92123047 5.1046875 8.92123047 4 8 C4 7.01 4 6.02 4 5 C2.06102121 2.32601524 2.06102121 2.32601524 0 0 Z " fill="#2384A8" transform="translate(664,423)"/>
<path d="M0 0 C0.33 0.66 0.66 1.32 1 2 C0.67 2.66 0.34 3.32 0 4 C-0.66 4 -1.32 4 -2 4 C-2 4.66 -2 5.32 -2 6 C-5.46153846 9 -5.46153846 9 -8 9 C-8.66 10.32 -9.32 11.64 -10 13 C-10.66 12.67 -11.32 12.34 -12 12 C-8.27653164 7.57905197 -4.70478962 3.42166518 0 0 Z " fill="#2E873E" transform="translate(490,333)"/>
<path d="M0 0 C0.66 0.33 1.32 0.66 2 1 C1.16855469 1.92232422 1.16855469 1.92232422 0.3203125 2.86328125 C-0.76636719 4.07564453 -0.76636719 4.07564453 -1.875 5.3125 C-2.59429687 6.11300781 -3.31359375 6.91351563 -4.0546875 7.73828125 C-6.11605502 10.04189083 -6.11605502 10.04189083 -8 13 C-8.99 12.67 -9.98 12.34 -11 12 C-9.55928394 8.58301375 -7.76769435 6.68041215 -4.9375 4.3125 C-3.86822266 3.40951172 -3.86822266 3.40951172 -2.77734375 2.48828125 C-1.89755859 1.75158203 -1.89755859 1.75158203 -1 1 C-0.67 0.67 -0.34 0.34 0 0 Z " fill="#2E8838" transform="translate(458,297)"/>
<path d="M0 0 C3.26680193 0.26925395 6.53826727 0.41356026 9.8125 0.5625 C10.69615234 0.60568359 11.57980469 0.64886719 12.49023438 0.69335938 C14.65999623 0.79891536 16.8299791 0.89991071 19 1 C19 1.33 19 1.66 19 2 C15.22923111 2.05799124 11.45857666 2.09359306 7.6875 2.125 C6.61564453 2.14175781 5.54378906 2.15851563 4.43945312 2.17578125 C3.41142578 2.18222656 2.38339844 2.18867188 1.32421875 2.1953125 C0.37635498 2.20578613 -0.57150879 2.21625977 -1.5480957 2.22705078 C-4 2 -4 2 -7 0 C-4.26773418 -1.36613291 -3.01956423 -0.60391285 0 0 Z " fill="#2EA88E" transform="translate(472,461)"/>
<path d="M0 0 C0.33 0 0.66 0 1 0 C1.35050464 5.841744 1.16727335 9.8531808 -2 15 C-2.33 15 -2.66 15 -3 15 C-3.3152595 9.01006953 -2.68219822 5.36439644 0 0 Z " fill="#1A683B" transform="translate(447,393)"/>
<path d="M0 0 C0.99 0 1.98 0 3 0 C1.43632643 3.52238047 -0.69495889 6.27123994 -3.125 9.25 C-3.84945313 10.14203125 -4.57390625 11.0340625 -5.3203125 11.953125 C-5.87460937 12.62859375 -6.42890625 13.3040625 -7 14 C-7.33 13.34 -7.66 12.68 -8 12 C-7 9 -7 9 -4 7 C-3.27617533 4.94074861 -3.27617533 4.94074861 -3 3 C-2.01 3 -1.02 3 0 3 C0 2.01 0 1.02 0 0 Z " fill="#207939" transform="translate(455,350)"/>
<path d="M0 0 C-3.64859761 3.04049801 -7.7444533 4.96518762 -12 7 C-12.66 6.34 -13.32 5.68 -14 5 C-12.630192 2.26038401 -10.6629885 1.72468432 -7.921875 0.59765625 C-5.2409116 -0.23605798 -2.78053992 -0.20345414 0 0 Z " fill="#59AA44" transform="translate(527,264)"/>
<path d="M0 0 C1.39035371 4.17106112 -0.09769194 7.18206859 -1.4375 11.1875 C-1.68048828 11.93708984 -1.92347656 12.68667969 -2.17382812 13.45898438 C-2.77465056 15.30857501 -3.38629678 17.15464327 -4 19 C-6 16 -6 16 -6 14 C-5.34 14 -4.68 14 -4 14 C-3.67 11.03 -3.34 8.06 -3 5 C-2.34 5 -1.68 5 -1 5 C-0.67 3.35 -0.34 1.7 0 0 Z " fill="#136332" transform="translate(436,381)"/>
<path d="M0 0 C4.71403788 0.47939368 8.66579301 0.96834048 13 3 C13 3.33 13 3.66 13 4 C10.1875 4.625 10.1875 4.625 7 5 C6.01 4.34 5.02 3.68 4 3 C3.01 3 2.02 3 1 3 C0.67 2.01 0.34 1.02 0 0 Z " fill="#3C9F84" transform="translate(449,444)"/>
<path d="M0 0 C1.65 0 3.3 0 5 0 C1.91367389 3.2626876 -0.93483504 6.02235218 -5 8 C-5.66 7.67 -6.32 7.34 -7 7 C-6.01 6.67 -5.02 6.34 -4 6 C-4 5.01 -4 4.02 -4 3 C-2.68 3 -1.36 3 0 3 C0 2.01 0 1.02 0 0 Z " fill="#1E7538" transform="translate(515,387)"/>
<path d="M0 0 C0.66 0.33 1.32 0.66 2 1 C-1.18306192 6.24269023 -6.6445635 8.42939048 -12 11 C-8.68542782 6.30435607 -4.63720719 3.27530896 0 0 Z " fill="#2A8B2E" transform="translate(511,315)"/>
<path d="M0 0 C3 3.75 3 3.75 3 6 C3.99 6.33 4.98 6.66 6 7 C6.33 8.98 6.66 10.96 7 13 C3.66366632 10.00880429 1.75472293 7.12359889 0 3 C0 2.01 0 1.02 0 0 Z " fill="#134A2B" transform="translate(666,563)"/>
<path d="M0 0 C0.33 0 0.66 0 1 0 C1.05389087 1.95803507 1.09274217 3.91648909 1.125 5.875 C1.14820313 6.96554687 1.17140625 8.05609375 1.1953125 9.1796875 C1 12 1 12 -1 14 C-2.59789351 9.04653013 -1.28306814 4.86717585 0 0 Z " fill="#1A6C38" transform="translate(421,357)"/>
<path d="M0 0 C0.99 0.66 1.98 1.32 3 2 C0.48169253 5.12270126 -0.7261549 5.94523098 -4.75 6.75 C-6.35875 6.87375 -6.35875 6.87375 -8 7 C-5.4837822 4.39391727 -2.94865641 2.10618315 0 0 Z " fill="#58A93B" transform="translate(553,246)"/>
<path d="M0 0 C0.33 0 0.66 0 1 0 C1.22174933 1.45635371 1.42698698 2.91522956 1.625 4.375 C1.74101563 5.18710938 1.85703125 5.99921875 1.9765625 6.8359375 C1.98429688 7.55007812 1.99203125 8.26421875 2 9 C1.34 9.66 0.68 10.32 0 11 C-2.04698414 8.95301586 -1.70045693 4.69588759 -2 2 C-1.34 2 -0.68 2 0 2 C0 1.34 0 0.68 0 0 Z " fill="#63AE4A" transform="translate(570,245)"/>
<path d="M0 0 C0.33 0.99 0.66 1.98 1 3 C1.66 3.33 2.32 3.66 3 4 C3 4.99 3 5.98 3 7 C3.66 7 4.32 7 5 7 C4.67 8.32 4.34 9.64 4 11 C3.13050683 9.92892883 2.27985795 8.84254056 1.4375 7.75 C0.96183594 7.14671875 0.48617188 6.5434375 -0.00390625 5.921875 C-1 4 -1 4 -0.65234375 1.765625 C-0.43707031 1.18296875 -0.22179687 0.6003125 0 0 Z " fill="#2C8361" transform="translate(431,432)"/>
<path d="M0 0 C0.99 0.495 0.99 0.495 2 1 C2 3.64 2 6.28 2 9 C2.66 9 3.32 9 4 9 C3.34 10.32 2.68 11.64 2 13 C0.24252386 8.49646738 -0.19294408 4.82360189 0 0 Z " fill="#18673E" transform="translate(421,404)"/>
<path d="M0 0 C6.75 0.75 6.75 0.75 9 3 C8.34 3 7.68 3 7 3 C7 4.32 7 5.64 7 7 C5.68 6.67 4.36 6.34 3 6 C3.33 5.01 3.66 4.02 4 3 C2.68 2.01 1.36 1.02 0 0 Z " fill="#56A64D" transform="translate(518,304)"/>
<path d="M0 0 C0.99 0 1.98 0 3 0 C3 1.65 3 3.3 3 5 C2.360625 5.12375 1.72125 5.2475 1.0625 5.375 C0.0415625 5.684375 0.0415625 5.684375 -1 6 C-1.33 6.66 -1.66 7.32 -2 8 C-1.125 2.25 -1.125 2.25 0 0 Z " fill="#237041" transform="translate(450,384)"/>
<path d="M0 0 C0.33 0.99 0.66 1.98 1 3 C-0.21484375 5.04296875 -0.21484375 5.04296875 -1.9375 7.1875 C-2.50339844 7.90292969 -3.06929688 8.61835938 -3.65234375 9.35546875 C-4.09707031 9.89816406 -4.54179687 10.44085938 -5 11 C-5.66 10.67 -6.32 10.34 -7 10 C-3.535 5.05 -3.535 5.05 0 0 Z " fill="#197033" transform="translate(465,360)"/>
<path d="M0 0 C0 3 0 3 -2 6 C-2.38499891 7.65549531 -2.72793135 9.3222433 -3 11 C-3.99 11 -4.98 11 -6 11 C-4.74194623 6.49197399 -3.09592835 3.5087188 0 0 Z " fill="#1B772D" transform="translate(437,320)"/>
<path d="M0 0 C0 0.99 0 1.98 0 3 C-0.66 3.66 -1.32 4.32 -2 5 C-2 5.99 -2 6.98 -2 8 C-3.65 8.33 -5.3 8.66 -7 9 C-2.85714286 2.57142857 -2.85714286 2.57142857 0 0 Z " fill="#228032" transform="translate(445,310)"/>
<path d="M0 0 C0.66 0 1.32 0 2 0 C2.66 3.63 3.32 7.26 4 11 C0.88776687 6.85035583 0.47996422 4.99162787 0 0 Z " fill="#1E704A" transform="translate(424,418)"/>
<path d="M0 0 C1.3303125 0.37125 1.3303125 0.37125 2.6875 0.75 C0.28986815 3.14763185 -0.64523498 3.09280586 -3.9375 3.375 C-4.75476563 3.44976562 -5.57203125 3.52453125 -6.4140625 3.6015625 C-7.04054688 3.65054687 -7.66703125 3.69953125 -8.3125 3.75 C-4.12788462 -0.31153846 -4.12788462 -0.31153846 0 0 Z " fill="#146332" transform="translate(467.3125,410.25)"/>
<path d="M0 0 C0 3 0 3 -2.5 5.6875 C-3.325 6.450625 -4.15 7.21375 -5 8 C-5.33 7.01 -5.66 6.02 -6 5 C-2.25 1.125 -2.25 1.125 0 0 Z " fill="#28813B" transform="translate(543,363)"/>
<path d="M0 0 C0.33 0.99 0.66 1.98 1 3 C0.34 3.66 -0.32 4.32 -1 5 C-3.625 4.625 -3.625 4.625 -6 4 C-4.03617993 2.49440461 -2.21736634 1.10868317 0 0 Z " fill="#61AD4B" transform="translate(533,258)"/>
<path d="M0 0 C0.99 0.495 0.99 0.495 2 1 C2 1.99 2 2.98 2 4 C2.66 4 3.32 4 4 4 C3.67 5.65 3.34 7.3 3 9 C0.23776722 6.23776722 0.42143709 3.79293383 0 0 Z " fill="#F0F4F2" transform="translate(815,560)"/>
</svg>
